Coordinates
version=1
nRows=7
nColumns=40
inDegrees=yes

Units are S.I. units (second, meters, Newtons, ...)
If the header above contains a line with 'inDegrees', this indicates whether rotational values are in degrees (yes) or radians (no).

endheader
time	pelvis_tilt	pelvis_list	pelvis_rotation	pelvis_tx	pelvis_ty	pelvis_tz	hip_flexion_r	hip_adduction_r	hip_rotation_r	knee_angle_r	knee_angle_r_beta	ankle_angle_r	subtalar_angle_r	mtp_angle_r	hip_flexion_l	hip_adduction_l	hip_rotation_l	knee_angle_l	knee_angle_l_beta	ankle_angle_l	subtalar_angle_l	mtp_angle_l	lumbar_extension	lumbar_bending	lumbar_rotation	arm_flex_r	arm_add_r	arm_rot_r	elbow_flex_r	pro_sup_r	wrist_flex_r	wrist_dev_r	arm_flex_l	arm_add_l	arm_rot_l	elbow_flex_l	pro_sup_l	wrist_flex_l	wrist_dev_l
      4.79000000	    -23.95941114	      0.71920344	      1.12210289	     -0.38815194	      0.84174720	     -0.91036110	     55.37181967	    -20.72419293	    -17.11797468	     49.52937960	      0.86445075	     17.41911609	      0.00000000	      0.00000000	     54.38213760	    -16.10277943	     -9.66998140	     49.24406350	      0.85947105	     18.67073235	      0.00000000	      0.00000000	    -12.64628318	      0.55696793	     -8.30633255	    -18.37743342	    -45.87698468	     36.31944685	     94.21217902	     87.31547695	      0.00000000	      0.00000000	    -29.06498838	    -37.39571497	     24.06200267	     88.83380354	     87.21498718	      0.00000000	      0.00000000
      4.79500000	    -23.53595482	      0.63530891	      1.19862883	     -0.38672112	      0.84730627	     -0.90986759	     53.99633796	    -20.42877379	    -17.57847866	     48.05624663	      0.83873973	     16.81685244	      0.00000000	      0.00000000	     53.12563977	    -15.94417512	     -9.75327500	     47.77152569	      0.83377041	     17.98187028	      0.00000000	      0.00000000	    -12.73785159	      0.62258563	     -8.33721011	    -18.75294924	    -45.71064809	     35.83777183	     94.14504417	     87.30639344	      0.00000000	      0.00000000	    -29.26676118	    -37.16477346	     23.68167415	     88.78887070	     87.21437567	      0.00000000	      0.00000000
      4.80000000	    -23.18538202	      0.56091853	      1.26705066	     -0.38539238	      0.85269425	     -0.90934467	     52.72362794	    -20.13167513	    -18.03459402	     46.60905036	      0.81348139	     16.28169032	      0.00000000	      0.00000000	     51.95889776	    -15.78685139	     -9.85433397	     46.30796965	      0.80822654	     17.26027595	      0.00000000	      0.00000000	    -12.75578273	      0.68575016	     -8.36630007	    -19.15089990	    -45.54819398	     35.33208569	     94.14154096	     87.30325634	      0.00000000	      0.00000000	    -29.53404606	    -36.99975099	     23.30192350	     88.85709863	     87.22146066	      0.00000000	      0.00000000
      4.80500000	    -22.86352650	      0.48571046	      1.32622569	     -0.38399956	      0.85796045	     -0.90891119	     51.46763339	    -19.82352245	    -18.46729036	     45.15952011	      0.78818231	     15.76966468	      0.00000000	      0.00000000	     50.81551647	    -15.62754028	     -9.93776126	     44.87907768	      0.78328767	     16.69423203	      0.00000000	      0.00000000	    -12.70507100	      0.75961887	     -8.36463797	    -19.55167830	    -45.42476278	     34.88736484	     94.17535513	     87.30110556	      0.00000000	      0.00000000	    -29.77017538	    -36.83085034	     23.01853791	     88.88126099	     87.22945578	      0.00000000	      0.00000000
      4.81000000	    -22.48897731	      0.43357200	      1.34160981	     -0.38254945	      0.86331831	     -0.90836897	     50.17646718	    -19.47200959	    -18.82426692	     43.67482972	      0.76226958	     15.22810769	      0.00000000	      0.00000000	     49.58106437	    -15.48630678	    -10.07704060	     43.39064867	      0.75730968	     16.04234411	      0.00000000	      0.00000000	    -12.74343539	      0.78568441	     -8.34415002	    -19.96094482	    -45.28048988	     34.41794922	     94.20089786	     87.30268956	      0.00000000	      0.00000000	    -30.02682533	    -36.66690284	     22.68170415	     88.94215647	     87.23040557	      0.00000000	      0.00000000
      4.81500000	    -22.13684660	      0.33430335	      1.47019499	     -0.38106420	      0.86852838	     -0.90798822	     48.86192039	    -19.17874192	    -19.32832706	     42.18786509	      0.73631715	     14.74454008	      0.00000000	      0.00000000	     48.42291558	    -15.29269092	    -10.10069450	     41.92217182	      0.73167993	     15.45996898	      0.00000000	      0.00000000	    -12.73902854	      0.89542400	     -8.41512362	    -20.40720887	    -45.16129422	     33.91618597	     94.22886252	     87.30120523	      0.00000000	      0.00000000	    -30.27036090	    -36.49077673	     22.33837549	     89.00972819	     87.23422013	      0.00000000	      0.00000000
      4.82000000	    -21.71673527	      0.22769474	      1.62149486	     -0.37934841	      0.87365401	     -0.90764541	     47.45987445	    -18.90324790	    -19.88597042	     40.73459062	      0.71095273	     14.30746133	      0.00000000	      0.00000000	     47.18669989	    -15.10632660	    -10.12608639	     40.48737523	      0.70663800	     14.97307914	      0.00000000	      0.00000000	    -12.79154268	      1.01714774	     -8.48068794	    -20.98672904	    -44.95228474	     33.20767199	     94.25581372	     87.30320923	      0.00000000	      0.00000000	    -30.53387267	    -36.30955807	     21.98920618	     89.05708830	     87.25021141	      0.00000000	      0.00000000
